solid OpenSCAD_Model
  facet normal -1 0 0
    outer loop
      vertex -11.5 6.25 -11
      vertex -11.5 6 4
      vertex -11.5 6.25 11
    endloop
  endfacet
  facet normal -1 0 0
    outer loop
      vertex -11.5 6.25 -11
      vertex -11.5 -6 4
      vertex -11.5 6 4
    endloop
  endfacet
  facet normal -1 0 0
    outer loop
      vertex -11.5 -6.25 11
      vertex -11.5 -6 4
      vertex -11.5 -6.25 -11
    endloop
  endfacet
  facet normal -1 0 0
    outer loop
      vertex -11.5 -6.25 -11
      vertex -11.5 -6 4
      vertex -11.5 6.25 -11
    endloop
  endfacet
  facet normal -1 0 0
    outer loop
      vertex -11.5 6 6
      vertex -11.5 6.25 11
      vertex -11.5 6 4
    endloop
  endfacet
  facet normal -1 0 0
    outer loop
      vertex -11.5 -6 6
      vertex -11.5 6.25 11
      vertex -11.5 6 6
    endloop
  endfacet
  facet normal -1 0 0
    outer loop
      vertex -11.5 -6 6
      vertex -11.5 -6.25 11
      vertex -11.5 6.25 11
    endloop
  endfacet
  facet normal -1 0 0
    outer loop
      vertex -11.5 -6 4
      vertex -11.5 -6.25 11
      vertex -11.5 -6 6
    endloop
  endfacet
  facet normal 0 0 1
    outer loop
      vertex 11.5 6.25 11
      vertex 11.2063 1.8541 11
      vertex 11.5 0 11
    endloop
  endfacet
  facet normal 0 0 1
    outer loop
      vertex 11.5 6.25 11
      vertex 10.3541 3.52671 11
      vertex 11.2063 1.8541 11
    endloop
  endfacet
  facet normal 0 0 1
    outer loop
      vertex 11.5 6.25 11
      vertex 9.02671 4.8541 11
      vertex 10.3541 3.52671 11
    endloop
  endfacet
  facet normal 0 0 1
    outer loop
      vertex 11.5 6.25 11
      vertex 7.3541 5.70634 11
      vertex 9.02671 4.8541 11
    endloop
  endfacet
  facet normal 0 0 1
    outer loop
      vertex 11.5 6.25 11
      vertex 5.5 6 11
      vertex 7.3541 5.70634 11
    endloop
  endfacet
  facet normal 0 0 1
    outer loop
      vertex 0.645898 3.52671 11
      vertex -3.5 2.8 11
      vertex 0.27562 2.8 11
    endloop
  endfacet
  facet normal 0 0 1
    outer loop
      vertex 1.97329 4.8541 11
      vertex -3.5 2.8 11
      vertex 0.645898 3.52671 11
    endloop
  endfacet
  facet normal 0 0 1
    outer loop
      vertex -11.5 6.25 11
      vertex 1.97329 4.8541 11
      vertex 3.6459 5.70634 11
    endloop
  endfacet
  facet normal 0 0 1
    outer loop
      vertex -3.5 2.8 11
      vertex -11.5 6.25 11
      vertex -3.5 -2.8 11
    endloop
  endfacet
  facet normal 0 0 1
    outer loop
      vertex 1.97329 4.8541 11
      vertex -11.5 6.25 11
      vertex -3.5 2.8 11
    endloop
  endfacet
  facet normal 0 0 1
    outer loop
      vertex 5.5 6 11
      vertex -11.5 6.25 11
      vertex 3.6459 5.70634 11
    endloop
  endfacet
  facet normal -0 0 1
    outer loop
      vertex -11.5 6.25 11
      vertex 5.5 6 11
      vertex 11.5 6.25 11
    endloop
  endfacet
  facet normal -0 0 1
    outer loop
      vertex 11.2063 -1.8541 11
      vertex 11.5 -6.25 11
      vertex 11.5 0 11
    endloop
  endfacet
  facet normal -0 0 1
    outer loop
      vertex 10.3541 -3.52671 11
      vertex 11.5 -6.25 11
      vertex 11.2063 -1.8541 11
    endloop
  endfacet
  facet normal -0 0 1
    outer loop
      vertex 9.02671 -4.8541 11
      vertex 11.5 -6.25 11
      vertex 10.3541 -3.52671 11
    endloop
  endfacet
  facet normal -0 0 1
    outer loop
      vertex 7.3541 -5.70634 11
      vertex 11.5 -6.25 11
      vertex 9.02671 -4.8541 11
    endloop
  endfacet
  facet normal -0 0 1
    outer loop
      vertex 5.5 -6 11
      vertex 11.5 -6.25 11
      vertex 7.3541 -5.70634 11
    endloop
  endfacet
  facet normal -0 0 1
    outer loop
      vertex -3.5 -2.8 11
      vertex 0.645898 -3.52671 11
      vertex 0.27562 -2.8 11
    endloop
  endfacet
  facet normal 0 0 1
    outer loop
      vertex -3.5 -2.8 11
      vertex 1.97329 -4.8541 11
      vertex 0.645898 -3.52671 11
    endloop
  endfacet
  facet normal 0 0 1
    outer loop
      vertex -11.5 -6.25 11
      vertex 1.97329 -4.8541 11
      vertex -3.5 -2.8 11
    endloop
  endfacet
  facet normal 0 0 1
    outer loop
      vertex 5.5 -6 11
      vertex -11.5 -6.25 11
      vertex 11.5 -6.25 11
    endloop
  endfacet
  facet normal 0 0 1
    outer loop
      vertex 3.6459 -5.70634 11
      vertex -11.5 -6.25 11
      vertex 5.5 -6 11
    endloop
  endfacet
  facet normal 0 0 1
    outer loop
      vertex 1.97329 -4.8541 11
      vertex -11.5 -6.25 11
      vertex 3.6459 -5.70634 11
    endloop
  endfacet
  facet normal 0 0 1
    outer loop
      vertex -11.5 -6.25 11
      vertex -3.5 -2.8 11
      vertex -11.5 6.25 11
    endloop
  endfacet
  facet normal 1 0 0
    outer loop
      vertex 11.5 6 4
      vertex 11.5 6.25 11
      vertex 11.5 6 6
    endloop
  endfacet
  facet normal 1 -0 0
    outer loop
      vertex 11.5 0 11
      vertex 11.5 6 6
      vertex 11.5 6.25 11
    endloop
  endfacet
  facet normal 1 0 0
    outer loop
      vertex 11.5 0 11
      vertex 11.5 -6 6
      vertex 11.5 6 6
    endloop
  endfacet
  facet normal 1 0 0
    outer loop
      vertex 11.5 -6 6
      vertex 11.5 -6.25 11
      vertex 11.5 -6 4
    endloop
  endfacet
  facet normal 1 -0 0
    outer loop
      vertex 11.5 -6.25 11
      vertex 11.5 -6 6
      vertex 11.5 0 11
    endloop
  endfacet
  facet normal 1 0 0
    outer loop
      vertex 11.5 6.25 11
      vertex 11.5 6 4
      vertex 11.5 6.25 -7.82457
    endloop
  endfacet
  facet normal 1 -0 0
    outer loop
      vertex 11.5 -6 4
      vertex 11.5 6.25 -7.82457
      vertex 11.5 6 4
    endloop
  endfacet
  facet normal 1 0 0
    outer loop
      vertex 11.5 -6 4
      vertex 11.5 -6.25 -7.82457
      vertex 11.5 6.25 -7.82457
    endloop
  endfacet
  facet normal 1 0 0
    outer loop
      vertex 11.5 -6.25 -7.82457
      vertex 11.5 -6 4
      vertex 11.5 -6.25 11
    endloop
  endfacet
  facet normal 0 0 -1
    outer loop
      vertex -11.5 -6.25 -11
      vertex 6 6.25 -11
      vertex 6 -6.25 -11
    endloop
  endfacet
  facet normal -0 0 -1
    outer loop
      vertex 6 6.25 -11
      vertex -11.5 -6.25 -11
      vertex -11.5 6.25 -11
    endloop
  endfacet
  facet normal 0 -1 0
    outer loop
      vertex 6 -6.25 -11
      vertex 11.5 -6.25 11
      vertex -11.5 -6.25 11
    endloop
  endfacet
  facet normal 0 -1 0
    outer loop
      vertex 6 -6.25 -11
      vertex -11.5 -6.25 11
      vertex -11.5 -6.25 -11
    endloop
  endfacet
  facet normal 0 -1 -0
    outer loop
      vertex 11.5 -6.25 11
      vertex 6 -6.25 -11
      vertex 11.5 -6.25 -7.82457
    endloop
  endfacet
  facet normal 0 1 0
    outer loop
      vertex 6 6.25 -11
      vertex 11.5 6.25 11
      vertex 11.5 6.25 -7.82457
    endloop
  endfacet
  facet normal 0 1 0
    outer loop
      vertex 11.5 6.25 11
      vertex 6 6.25 -11
      vertex -11.5 6.25 11
    endloop
  endfacet
  facet normal 0 1 0
    outer loop
      vertex -11.5 6.25 11
      vertex 6 6.25 -11
      vertex -11.5 6.25 -11
    endloop
  endfacet
  facet normal -1 0 0
    outer loop
      vertex -16 -6 4
      vertex -16 6 6
      vertex -16 6 4
    endloop
  endfacet
  facet normal -1 -0 0
    outer loop
      vertex -16 6 6
      vertex -16 -6 4
      vertex -16 -6 6
    endloop
  endfacet
  facet normal 0 0 1
    outer loop
      vertex 16 6 6
      vertex 15 0 6
      vertex 16 -6 6
    endloop
  endfacet
  facet normal 0 0 1
    outer loop
      vertex 16 6 6
      vertex 14.9511 0.309016 6
      vertex 15 0 6
    endloop
  endfacet
  facet normal 0 0 1
    outer loop
      vertex 16 6 6
      vertex 14.809 0.587785 6
      vertex 14.9511 0.309016 6
    endloop
  endfacet
  facet normal 0 0 1
    outer loop
      vertex 16 6 6
      vertex 14.5878 0.809016 6
      vertex 14.809 0.587785 6
    endloop
  endfacet
  facet normal 0 0 1
    outer loop
      vertex 16 6 6
      vertex 14.309 0.951056 6
      vertex 14.5878 0.809016 6
    endloop
  endfacet
  facet normal 0 0 1
    outer loop
      vertex 16 6 6
      vertex 14 1 6
      vertex 14.309 0.951056 6
    endloop
  endfacet
  facet normal -0 0 1
    outer loop
      vertex 11.5 6 6
      vertex 14 1 6
      vertex 16 6 6
    endloop
  endfacet
  facet normal 0 0 1
    outer loop
      vertex 14 1 6
      vertex 11.5 6 6
      vertex 13.691 0.951056 6
    endloop
  endfacet
  facet normal 0 0 1
    outer loop
      vertex 13.691 0.951056 6
      vertex 11.5 6 6
      vertex 13.4122 0.809016 6
    endloop
  endfacet
  facet normal 0 0 1
    outer loop
      vertex 13.0489 0.309016 6
      vertex 11.5 6 6
      vertex 13 0 6
    endloop
  endfacet
  facet normal 0 0 1
    outer loop
      vertex 13.191 0.587785 6
      vertex 11.5 6 6
      vertex 13.0489 0.309016 6
    endloop
  endfacet
  facet normal 0 0 1
    outer loop
      vertex 13.4122 0.809016 6
      vertex 11.5 6 6
      vertex 13.191 0.587785 6
    endloop
  endfacet
  facet normal -0 0 1
    outer loop
      vertex 14.9511 -0.309016 6
      vertex 16 -6 6
      vertex 15 0 6
    endloop
  endfacet
  facet normal -0 0 1
    outer loop
      vertex 14.809 -0.587785 6
      vertex 16 -6 6
      vertex 14.9511 -0.309016 6
    endloop
  endfacet
  facet normal -0 0 1
    outer loop
      vertex 14.5878 -0.809016 6
      vertex 16 -6 6
      vertex 14.809 -0.587785 6
    endloop
  endfacet
  facet normal -0 0 1
    outer loop
      vertex 14.309 -0.951056 6
      vertex 16 -6 6
      vertex 14.5878 -0.809016 6
    endloop
  endfacet
  facet normal -0 0 1
    outer loop
      vertex 14 -1 6
      vertex 16 -6 6
      vertex 14.309 -0.951056 6
    endloop
  endfacet
  facet normal 0 0 1
    outer loop
      vertex 11.5 -6 6
      vertex 14 -1 6
      vertex 13.691 -0.951056 6
    endloop
  endfacet
  facet normal 0 0 1
    outer loop
      vertex 11.5 -6 6
      vertex 13.691 -0.951056 6
      vertex 13.4122 -0.809016 6
    endloop
  endfacet
  facet normal 0 0 1
    outer loop
      vertex 11.5 -6 6
      vertex 13.4122 -0.809016 6
      vertex 13.191 -0.587785 6
    endloop
  endfacet
  facet normal 0 0 1
    outer loop
      vertex 11.5 -6 6
      vertex 13 0 6
      vertex 11.5 6 6
    endloop
  endfacet
  facet normal 0 0 1
    outer loop
      vertex 14 -1 6
      vertex 11.5 -6 6
      vertex 16 -6 6
    endloop
  endfacet
  facet normal 0 0 1
    outer loop
      vertex 13.0489 -0.309016 6
      vertex 11.5 -6 6
      vertex 13.191 -0.587785 6
    endloop
  endfacet
  facet normal 0 0 1
    outer loop
      vertex 13 0 6
      vertex 11.5 -6 6
      vertex 13.0489 -0.309016 6
    endloop
  endfacet
  facet normal 0 0 1
    outer loop
      vertex -11.5 6 6
      vertex -13 0 6
      vertex -11.5 -6 6
    endloop
  endfacet
  facet normal 0 0 1
    outer loop
      vertex -11.5 6 6
      vertex -13.0489 0.309016 6
      vertex -13 0 6
    endloop
  endfacet
  facet normal 0 0 1
    outer loop
      vertex -11.5 6 6
      vertex -13.191 0.587785 6
      vertex -13.0489 0.309016 6
    endloop
  endfacet
  facet normal 0 0 1
    outer loop
      vertex -11.5 6 6
      vertex -13.4122 0.809016 6
      vertex -13.191 0.587785 6
    endloop
  endfacet
  facet normal 0 0 1
    outer loop
      vertex -11.5 6 6
      vertex -13.691 0.951056 6
      vertex -13.4122 0.809016 6
    endloop
  endfacet
  facet normal 0 0 1
    outer loop
      vertex -11.5 6 6
      vertex -14 1 6
      vertex -13.691 0.951056 6
    endloop
  endfacet
  facet normal -0 0 1
    outer loop
      vertex -16 6 6
      vertex -14 1 6
      vertex -11.5 6 6
    endloop
  endfacet
  facet normal 0 0 1
    outer loop
      vertex -14 1 6
      vertex -16 6 6
      vertex -14.309 0.951056 6
    endloop
  endfacet
  facet normal 0 0 1
    outer loop
      vertex -14.309 0.951056 6
      vertex -16 6 6
      vertex -14.5878 0.809016 6
    endloop
  endfacet
  facet normal 0 0 1
    outer loop
      vertex -14.9511 0.309016 6
      vertex -16 6 6
      vertex -15 0 6
    endloop
  endfacet
  facet normal 0 0 1
    outer loop
      vertex -14.809 0.587785 6
      vertex -16 6 6
      vertex -14.9511 0.309016 6
    endloop
  endfacet
  facet normal 0 0 1
    outer loop
      vertex -14.5878 0.809016 6
      vertex -16 6 6
      vertex -14.809 0.587785 6
    endloop
  endfacet
  facet normal -0 0 1
    outer loop
      vertex -13.0489 -0.309016 6
      vertex -11.5 -6 6
      vertex -13 0 6
    endloop
  endfacet
  facet normal -0 0 1
    outer loop
      vertex -13.191 -0.587785 6
      vertex -11.5 -6 6
      vertex -13.0489 -0.309016 6
    endloop
  endfacet
  facet normal -0 0 1
    outer loop
      vertex -13.4122 -0.809016 6
      vertex -11.5 -6 6
      vertex -13.191 -0.587785 6
    endloop
  endfacet
  facet normal -0 0 1
    outer loop
      vertex -13.691 -0.951056 6
      vertex -11.5 -6 6
      vertex -13.4122 -0.809016 6
    endloop
  endfacet
  facet normal -0 0 1
    outer loop
      vertex -14 -1 6
      vertex -11.5 -6 6
      vertex -13.691 -0.951056 6
    endloop
  endfacet
  facet normal 0 0 1
    outer loop
      vertex -16 -6 6
      vertex -14 -1 6
      vertex -14.309 -0.951056 6
    endloop
  endfacet
  facet normal 0 0 1
    outer loop
      vertex -16 -6 6
      vertex -14.309 -0.951056 6
      vertex -14.5878 -0.809016 6
    endloop
  endfacet
  facet normal 0 0 1
    outer loop
      vertex -16 -6 6
      vertex -14.5878 -0.809016 6
      vertex -14.809 -0.587785 6
    endloop
  endfacet
  facet normal 0 0 1
    outer loop
      vertex -16 -6 6
      vertex -15 0 6
      vertex -16 6 6
    endloop
  endfacet
  facet normal 0 0 1
    outer loop
      vertex -14 -1 6
      vertex -16 -6 6
      vertex -11.5 -6 6
    endloop
  endfacet
  facet normal 0 0 1
    outer loop
      vertex -14.9511 -0.309016 6
      vertex -16 -6 6
      vertex -14.809 -0.587785 6
    endloop
  endfacet
  facet normal 0 0 1
    outer loop
      vertex -15 0 6
      vertex -16 -6 6
      vertex -14.9511 -0.309016 6
    endloop
  endfacet
  facet normal 1 -0 0
    outer loop
      vertex 16 -6 6
      vertex 16 6 4
      vertex 16 6 6
    endloop
  endfacet
  facet normal 1 0 0
    outer loop
      vertex 16 6 4
      vertex 16 -6 6
      vertex 16 -6 4
    endloop
  endfacet
  facet normal 0 1 -0
    outer loop
      vertex 16 6 4
      vertex 11.5 6 6
      vertex 16 6 6
    endloop
  endfacet
  facet normal 0 1 0
    outer loop
      vertex 11.5 6 6
      vertex 16 6 4
      vertex 11.5 6 4
    endloop
  endfacet
  facet normal 0 1 -0
    outer loop
      vertex -11.5 6 4
      vertex -16 6 6
      vertex -11.5 6 6
    endloop
  endfacet
  facet normal 0 1 0
    outer loop
      vertex -16 6 6
      vertex -11.5 6 4
      vertex -16 6 4
    endloop
  endfacet
  facet normal 0 0 -1
    outer loop
      vertex -11.5 -6 4
      vertex -13 0 4
      vertex -11.5 6 4
    endloop
  endfacet
  facet normal 0 0 -1
    outer loop
      vertex -11.5 -6 4
      vertex -13.0489 -0.309016 4
      vertex -13 0 4
    endloop
  endfacet
  facet normal 0 0 -1
    outer loop
      vertex -11.5 -6 4
      vertex -13.191 -0.587785 4
      vertex -13.0489 -0.309016 4
    endloop
  endfacet
  facet normal 0 0 -1
    outer loop
      vertex -11.5 -6 4
      vertex -13.4122 -0.809016 4
      vertex -13.191 -0.587785 4
    endloop
  endfacet
  facet normal 0 0 -1
    outer loop
      vertex -11.5 -6 4
      vertex -13.691 -0.951056 4
      vertex -13.4122 -0.809016 4
    endloop
  endfacet
  facet normal 0 0 -1
    outer loop
      vertex -11.5 -6 4
      vertex -14 -1 4
      vertex -13.691 -0.951056 4
    endloop
  endfacet
  facet normal 0 0 -1
    outer loop
      vertex -16 -6 4
      vertex -14 -1 4
      vertex -11.5 -6 4
    endloop
  endfacet
  facet normal -0 0 -1
    outer loop
      vertex -14 -1 4
      vertex -16 -6 4
      vertex -14.309 -0.951056 4
    endloop
  endfacet
  facet normal -0 0 -1
    outer loop
      vertex -14.309 -0.951056 4
      vertex -16 -6 4
      vertex -14.5878 -0.809016 4
    endloop
  endfacet
  facet normal -0 0 -1
    outer loop
      vertex -14.9511 -0.309016 4
      vertex -16 -6 4
      vertex -15 0 4
    endloop
  endfacet
  facet normal -0 0 -1
    outer loop
      vertex -14.809 -0.587785 4
      vertex -16 -6 4
      vertex -14.9511 -0.309016 4
    endloop
  endfacet
  facet normal -0 0 -1
    outer loop
      vertex -14.5878 -0.809016 4
      vertex -16 -6 4
      vertex -14.809 -0.587785 4
    endloop
  endfacet
  facet normal 0 0 -1
    outer loop
      vertex -13.0489 0.309016 4
      vertex -11.5 6 4
      vertex -13 0 4
    endloop
  endfacet
  facet normal 0 0 -1
    outer loop
      vertex -13.191 0.587785 4
      vertex -11.5 6 4
      vertex -13.0489 0.309016 4
    endloop
  endfacet
  facet normal 0 0 -1
    outer loop
      vertex -13.4122 0.809016 4
      vertex -11.5 6 4
      vertex -13.191 0.587785 4
    endloop
  endfacet
  facet normal 0 0 -1
    outer loop
      vertex -13.691 0.951056 4
      vertex -11.5 6 4
      vertex -13.4122 0.809016 4
    endloop
  endfacet
  facet normal 0 0 -1
    outer loop
      vertex -14 1 4
      vertex -11.5 6 4
      vertex -13.691 0.951056 4
    endloop
  endfacet
  facet normal 0 0 -1
    outer loop
      vertex -16 6 4
      vertex -14 1 4
      vertex -14.309 0.951056 4
    endloop
  endfacet
  facet normal 0 0 -1
    outer loop
      vertex -16 6 4
      vertex -14.309 0.951056 4
      vertex -14.5878 0.809016 4
    endloop
  endfacet
  facet normal 0 0 -1
    outer loop
      vertex -16 6 4
      vertex -14.5878 0.809016 4
      vertex -14.809 0.587785 4
    endloop
  endfacet
  facet normal 0 0 -1
    outer loop
      vertex -16 6 4
      vertex -15 0 4
      vertex -16 -6 4
    endloop
  endfacet
  facet normal 0 0 -1
    outer loop
      vertex -14 1 4
      vertex -16 6 4
      vertex -11.5 6 4
    endloop
  endfacet
  facet normal 0 0 -1
    outer loop
      vertex -14.9511 0.309016 4
      vertex -16 6 4
      vertex -14.809 0.587785 4
    endloop
  endfacet
  facet normal 0 0 -1
    outer loop
      vertex -15 0 4
      vertex -16 6 4
      vertex -14.9511 0.309016 4
    endloop
  endfacet
  facet normal 0 0 -1
    outer loop
      vertex 16 -6 4
      vertex 15 0 4
      vertex 16 6 4
    endloop
  endfacet
  facet normal 0 0 -1
    outer loop
      vertex 16 -6 4
      vertex 14.9511 -0.309016 4
      vertex 15 0 4
    endloop
  endfacet
  facet normal 0 0 -1
    outer loop
      vertex 16 -6 4
      vertex 14.809 -0.587785 4
      vertex 14.9511 -0.309016 4
    endloop
  endfacet
  facet normal 0 0 -1
    outer loop
      vertex 16 -6 4
      vertex 14.5878 -0.809016 4
      vertex 14.809 -0.587785 4
    endloop
  endfacet
  facet normal 0 0 -1
    outer loop
      vertex 16 -6 4
      vertex 14.309 -0.951056 4
      vertex 14.5878 -0.809016 4
    endloop
  endfacet
  facet normal 0 0 -1
    outer loop
      vertex 16 -6 4
      vertex 14 -1 4
      vertex 14.309 -0.951056 4
    endloop
  endfacet
  facet normal 0 0 -1
    outer loop
      vertex 11.5 -6 4
      vertex 14 -1 4
      vertex 16 -6 4
    endloop
  endfacet
  facet normal -0 0 -1
    outer loop
      vertex 14 -1 4
      vertex 11.5 -6 4
      vertex 13.691 -0.951056 4
    endloop
  endfacet
  facet normal -0 0 -1
    outer loop
      vertex 13.691 -0.951056 4
      vertex 11.5 -6 4
      vertex 13.4122 -0.809016 4
    endloop
  endfacet
  facet normal -0 0 -1
    outer loop
      vertex 13.0489 -0.309016 4
      vertex 11.5 -6 4
      vertex 13 0 4
    endloop
  endfacet
  facet normal -0 0 -1
    outer loop
      vertex 13.191 -0.587785 4
      vertex 11.5 -6 4
      vertex 13.0489 -0.309016 4
    endloop
  endfacet
  facet normal -0 0 -1
    outer loop
      vertex 13.4122 -0.809016 4
      vertex 11.5 -6 4
      vertex 13.191 -0.587785 4
    endloop
  endfacet
  facet normal 0 0 -1
    outer loop
      vertex 14.9511 0.309016 4
      vertex 16 6 4
      vertex 15 0 4
    endloop
  endfacet
  facet normal 0 0 -1
    outer loop
      vertex 14.809 0.587785 4
      vertex 16 6 4
      vertex 14.9511 0.309016 4
    endloop
  endfacet
  facet normal 0 0 -1
    outer loop
      vertex 14.5878 0.809016 4
      vertex 16 6 4
      vertex 14.809 0.587785 4
    endloop
  endfacet
  facet normal 0 0 -1
    outer loop
      vertex 14.309 0.951056 4
      vertex 16 6 4
      vertex 14.5878 0.809016 4
    endloop
  endfacet
  facet normal 0 0 -1
    outer loop
      vertex 14 1 4
      vertex 16 6 4
      vertex 14.309 0.951056 4
    endloop
  endfacet
  facet normal 0 0 -1
    outer loop
      vertex 11.5 6 4
      vertex 14 1 4
      vertex 13.691 0.951056 4
    endloop
  endfacet
  facet normal 0 0 -1
    outer loop
      vertex 11.5 6 4
      vertex 13.691 0.951056 4
      vertex 13.4122 0.809016 4
    endloop
  endfacet
  facet normal 0 0 -1
    outer loop
      vertex 11.5 6 4
      vertex 13.4122 0.809016 4
      vertex 13.191 0.587785 4
    endloop
  endfacet
  facet normal 0 0 -1
    outer loop
      vertex 11.5 6 4
      vertex 13 0 4
      vertex 11.5 -6 4
    endloop
  endfacet
  facet normal 0 0 -1
    outer loop
      vertex 14 1 4
      vertex 11.5 6 4
      vertex 16 6 4
    endloop
  endfacet
  facet normal 0 0 -1
    outer loop
      vertex 13.0489 0.309016 4
      vertex 11.5 6 4
      vertex 13.191 0.587785 4
    endloop
  endfacet
  facet normal 0 0 -1
    outer loop
      vertex 13 0 4
      vertex 11.5 6 4
      vertex 13.0489 0.309016 4
    endloop
  endfacet
  facet normal 0 -1 0
    outer loop
      vertex 11.5 -6 4
      vertex 16 -6 6
      vertex 11.5 -6 6
    endloop
  endfacet
  facet normal 0 -1 -0
    outer loop
      vertex 16 -6 6
      vertex 11.5 -6 4
      vertex 16 -6 4
    endloop
  endfacet
  facet normal 0 -1 0
    outer loop
      vertex -16 -6 4
      vertex -11.5 -6 6
      vertex -16 -6 6
    endloop
  endfacet
  facet normal 0 -1 -0
    outer loop
      vertex -11.5 -6 6
      vertex -16 -6 4
      vertex -11.5 -6 4
    endloop
  endfacet
  facet normal 0.987688 0.156435 0
    outer loop
      vertex 11.5 0 15.625
      vertex 11.2063 1.8541 11
      vertex 11.2063 1.8541 15.625
    endloop
  endfacet
  facet normal 0.987688 0.156435 0
    outer loop
      vertex 11.2063 1.8541 11
      vertex 11.5 0 15.625
      vertex 11.5 0 11
    endloop
  endfacet
  facet normal -0.987688 0.156435 0
    outer loop
      vertex -0.345491 0.975528 15
      vertex -0.206339 1.8541 15.625
      vertex -0.206339 1.8541 15
    endloop
  endfacet
  facet normal -0.987688 0.156435 0
    outer loop
      vertex -0.206339 1.8541 15.625
      vertex -0.345491 0.975528 15
      vertex -0.345491 0.975528 15.625
    endloop
  endfacet
  facet normal 0.156435 0.987688 -0
    outer loop
      vertex 7.3541 5.70634 11
      vertex 5.5 6 15.625
      vertex 7.3541 5.70634 15.625
    endloop
  endfacet
  facet normal 0.156435 0.987688 0
    outer loop
      vertex 5.5 6 15.625
      vertex 7.3541 5.70634 11
      vertex 5.5 6 11
    endloop
  endfacet
  facet normal 0.707107 0.707107 0
    outer loop
      vertex 10.3541 3.52671 15.625
      vertex 9.02671 4.8541 11
      vertex 9.02671 4.8541 15.625
    endloop
  endfacet
  facet normal 0.707107 0.707107 0
    outer loop
      vertex 9.02671 4.8541 11
      vertex 10.3541 3.52671 15.625
      vertex 10.3541 3.52671 11
    endloop
  endfacet
  facet normal 0.891006 0.453991 0
    outer loop
      vertex 11.2063 1.8541 15.625
      vertex 10.3541 3.52671 11
      vertex 10.3541 3.52671 15.625
    endloop
  endfacet
  facet normal 0.891006 0.453991 0
    outer loop
      vertex 10.3541 3.52671 11
      vertex 11.2063 1.8541 15.625
      vertex 11.2063 1.8541 11
    endloop
  endfacet
  facet normal 0.453991 0.891006 -0
    outer loop
      vertex 9.02671 4.8541 11
      vertex 7.3541 5.70634 15.625
      vertex 9.02671 4.8541 15.625
    endloop
  endfacet
  facet normal 0.453991 0.891006 0
    outer loop
      vertex 7.3541 5.70634 15.625
      vertex 9.02671 4.8541 11
      vertex 7.3541 5.70634 11
    endloop
  endfacet
  facet normal -0.453991 0.891006 0
    outer loop
      vertex 3.6459 5.70634 11
      vertex 1.97329 4.8541 15.625
      vertex 3.6459 5.70634 15.625
    endloop
  endfacet
  facet normal -0.453991 0.891006 0
    outer loop
      vertex 1.97329 4.8541 15.625
      vertex 3.6459 5.70634 11
      vertex 1.97329 4.8541 11
    endloop
  endfacet
  facet normal -0.707107 0.707107 0
    outer loop
      vertex 0.645898 3.52671 11
      vertex 1.97329 4.8541 15.625
      vertex 1.97329 4.8541 11
    endloop
  endfacet
  facet normal -0.707107 0.707107 0
    outer loop
      vertex 1.97329 4.8541 15.625
      vertex 0.645898 3.52671 11
      vertex 0.645898 3.52671 15.625
    endloop
  endfacet
  facet normal -0.156435 0.987688 0
    outer loop
      vertex 5.5 6 11
      vertex 3.6459 5.70634 15.625
      vertex 5.5 6 15.625
    endloop
  endfacet
  facet normal -0.156435 0.987688 0
    outer loop
      vertex 3.6459 5.70634 15.625
      vertex 5.5 6 11
      vertex 3.6459 5.70634 11
    endloop
  endfacet
  facet normal 0.156435 -0.987688 0
    outer loop
      vertex 5.5 -6 11
      vertex 7.3541 -5.70634 15.625
      vertex 5.5 -6 15.625
    endloop
  endfacet
  facet normal 0.156435 -0.987688 0
    outer loop
      vertex 7.3541 -5.70634 15.625
      vertex 5.5 -6 11
      vertex 7.3541 -5.70634 11
    endloop
  endfacet
  facet normal 0.891006 -0.453991 0
    outer loop
      vertex 10.3541 -3.52671 15.625
      vertex 11.2063 -1.8541 11
      vertex 11.2063 -1.8541 15.625
    endloop
  endfacet
  facet normal 0.891006 -0.453991 0
    outer loop
      vertex 11.2063 -1.8541 11
      vertex 10.3541 -3.52671 15.625
      vertex 10.3541 -3.52671 11
    endloop
  endfacet
  facet normal -0.987688 -0.156435 0
    outer loop
      vertex -0.206339 -1.8541 15
      vertex -0.345491 -0.975528 15.625
      vertex -0.345491 -0.975528 15
    endloop
  endfacet
  facet normal -0.987688 -0.156435 0
    outer loop
      vertex -0.345491 -0.975528 15.625
      vertex -0.206339 -1.8541 15
      vertex -0.206339 -1.8541 15.625
    endloop
  endfacet
  facet normal -0.891007 0.45399 0
    outer loop
      vertex 0.27562 2.8 15
      vertex 0.645898 3.52671 11
      vertex 0.27562 2.8 11
    endloop
  endfacet
  facet normal -0.891007 0.45399 0
    outer loop
      vertex 0.645898 3.52671 11
      vertex 0.27562 2.8 15
      vertex 0.645898 3.52671 15.625
    endloop
  endfacet
  facet normal -0.891007 0.45399 0
    outer loop
      vertex -0.206339 1.8541 15.625
      vertex 0.27562 2.8 15
      vertex -0.206339 1.8541 15
    endloop
  endfacet
  facet normal -0.891007 0.45399 -1.97743e-08
    outer loop
      vertex 0.27562 2.8 15
      vertex -0.206339 1.8541 15.625
      vertex 0.645898 3.52671 15.625
    endloop
  endfacet
  facet normal 0 0 1
    outer loop
      vertex 7.85 0 15.625
      vertex 11.5 0 15.625
      vertex 11.2063 1.8541 15.625
    endloop
  endfacet
  facet normal 0 0 1
    outer loop
      vertex 7.73498 0.72619 15.625
      vertex 11.2063 1.8541 15.625
      vertex 10.3541 3.52671 15.625
    endloop
  endfacet
  facet normal 0 0 1
    outer loop
      vertex 11.5 0 15.625
      vertex 7.85 0 15.625
      vertex 11.2063 -1.8541 15.625
    endloop
  endfacet
  facet normal 0 0 1
    outer loop
      vertex 7.40119 1.3813 15.625
      vertex 10.3541 3.52671 15.625
      vertex 9.02671 4.8541 15.625
    endloop
  endfacet
  facet normal -0 0 1
    outer loop
      vertex 7.73498 -0.72619 15.625
      vertex 11.2063 -1.8541 15.625
      vertex 7.85 0 15.625
    endloop
  endfacet
  facet normal 0 0 1
    outer loop
      vertex 11.2063 -1.8541 15.625
      vertex 7.73498 -0.72619 15.625
      vertex 10.3541 -3.52671 15.625
    endloop
  endfacet
  facet normal 0 0 1
    outer loop
      vertex 11.2063 1.8541 15.625
      vertex 7.73498 0.72619 15.625
      vertex 7.85 0 15.625
    endloop
  endfacet
  facet normal 0 0 1
    outer loop
      vertex 10.3541 3.52671 15.625
      vertex 7.40119 1.3813 15.625
      vertex 7.73498 0.72619 15.625
    endloop
  endfacet
  facet normal 0 0 1
    outer loop
      vertex 6.8813 1.90119 15.625
      vertex 9.02671 4.8541 15.625
      vertex 7.3541 5.70634 15.625
    endloop
  endfacet
  facet normal 0 0 1
    outer loop
      vertex 9.02671 4.8541 15.625
      vertex 6.8813 1.90119 15.625
      vertex 7.40119 1.3813 15.625
    endloop
  endfacet
  facet normal 0 0 1
    outer loop
      vertex 7.3541 5.70634 15.625
      vertex 6.22619 2.23498 15.625
      vertex 6.8813 1.90119 15.625
    endloop
  endfacet
  facet normal 0 0 1
    outer loop
      vertex 5.5 6 15.625
      vertex 6.22619 2.23498 15.625
      vertex 7.3541 5.70634 15.625
    endloop
  endfacet
  facet normal 0 0 1
    outer loop
      vertex 5.5 6 15.625
      vertex 5.5 2.35 15.625
      vertex 6.22619 2.23498 15.625
    endloop
  endfacet
  facet normal 0 0 1
    outer loop
      vertex 5.5 6 15.625
      vertex 4.77381 2.23498 15.625
      vertex 5.5 2.35 15.625
    endloop
  endfacet
  facet normal -0 0 1
    outer loop
      vertex 3.6459 5.70634 15.625
      vertex 4.77381 2.23498 15.625
      vertex 5.5 6 15.625
    endloop
  endfacet
  facet normal 0 0 1
    outer loop
      vertex 4.77381 2.23498 15.625
      vertex 3.6459 5.70634 15.625
      vertex 4.1187 1.90119 15.625
    endloop
  endfacet
  facet normal -0 0 1
    outer loop
      vertex 1.97329 4.8541 15.625
      vertex 4.1187 1.90119 15.625
      vertex 3.6459 5.70634 15.625
    endloop
  endfacet
  facet normal 0 0 1
    outer loop
      vertex 4.1187 1.90119 15.625
      vertex 1.97329 4.8541 15.625
      vertex 3.59881 1.3813 15.625
    endloop
  endfacet
  facet normal -0 0 1
    outer loop
      vertex 0.645898 3.52671 15.625
      vertex 3.59881 1.3813 15.625
      vertex 1.97329 4.8541 15.625
    endloop
  endfacet
  facet normal 0 0 1
    outer loop
      vertex 3.59881 1.3813 15.625
      vertex 0.645898 3.52671 15.625
      vertex 3.26502 0.72619 15.625
    endloop
  endfacet
  facet normal -0 0 1
    outer loop
      vertex 7.40119 -1.3813 15.625
      vertex 10.3541 -3.52671 15.625
      vertex 7.73498 -0.72619 15.625
    endloop
  endfacet
  facet normal 0 0 1
    outer loop
      vertex 10.3541 -3.52671 15.625
      vertex 7.40119 -1.3813 15.625
      vertex 9.02671 -4.8541 15.625
    endloop
  endfacet
  facet normal -0 0 1
    outer loop
      vertex 6.8813 -1.90119 15.625
      vertex 9.02671 -4.8541 15.625
      vertex 7.40119 -1.3813 15.625
    endloop
  endfacet
  facet normal 0 0 1
    outer loop
      vertex 9.02671 -4.8541 15.625
      vertex 6.8813 -1.90119 15.625
      vertex 7.3541 -5.70634 15.625
    endloop
  endfacet
  facet normal -0 0 1
    outer loop
      vertex 6.22619 -2.23498 15.625
      vertex 7.3541 -5.70634 15.625
      vertex 6.8813 -1.90119 15.625
    endloop
  endfacet
  facet normal -0 0 1
    outer loop
      vertex 5.5 -2.35 15.625
      vertex 7.3541 -5.70634 15.625
      vertex 6.22619 -2.23498 15.625
    endloop
  endfacet
  facet normal 0 0 1
    outer loop
      vertex 5.5 -2.35 15.625
      vertex 5.5 -6 15.625
      vertex 7.3541 -5.70634 15.625
    endloop
  endfacet
  facet normal 0 0 1
    outer loop
      vertex 4.77381 -2.23498 15.625
      vertex 5.5 -6 15.625
      vertex 5.5 -2.35 15.625
    endloop
  endfacet
  facet normal 0 0 1
    outer loop
      vertex 3.6459 -5.70634 15.625
      vertex 4.77381 -2.23498 15.625
      vertex 4.1187 -1.90119 15.625
    endloop
  endfacet
  facet normal 0 0 1
    outer loop
      vertex 4.77381 -2.23498 15.625
      vertex 3.6459 -5.70634 15.625
      vertex 5.5 -6 15.625
    endloop
  endfacet
  facet normal 0 0 1
    outer loop
      vertex 1.97329 -4.8541 15.625
      vertex 4.1187 -1.90119 15.625
      vertex 3.59881 -1.3813 15.625
    endloop
  endfacet
  facet normal 0 0 1
    outer loop
      vertex 0.645898 -3.52671 15.625
      vertex 3.59881 -1.3813 15.625
      vertex 3.26502 -0.72619 15.625
    endloop
  endfacet
  facet normal 0 0 1
    outer loop
      vertex -0.345491 -0.975528 15.625
      vertex 3.26502 -0.72619 15.625
      vertex 3.15 0 15.625
    endloop
  endfacet
  facet normal -0 0 1
    outer loop
      vertex -0.206339 1.8541 15.625
      vertex 3.26502 0.72619 15.625
      vertex 0.645898 3.52671 15.625
    endloop
  endfacet
  facet normal 0 0 1
    outer loop
      vertex -0.345491 -0.975528 15.625
      vertex 3.15 0 15.625
      vertex -0.345491 0.975528 15.625
    endloop
  endfacet
  facet normal -0 0 1
    outer loop
      vertex -0.345491 0.975528 15.625
      vertex 3.26502 0.72619 15.625
      vertex -0.206339 1.8541 15.625
    endloop
  endfacet
  facet normal 0 0 1
    outer loop
      vertex 3.26502 -0.72619 15.625
      vertex -0.345491 -0.975528 15.625
      vertex -0.206339 -1.8541 15.625
    endloop
  endfacet
  facet normal 0 0 1
    outer loop
      vertex 3.26502 0.72619 15.625
      vertex -0.345491 0.975528 15.625
      vertex 3.15 0 15.625
    endloop
  endfacet
  facet normal 0 0 1
    outer loop
      vertex 4.1187 -1.90119 15.625
      vertex 1.97329 -4.8541 15.625
      vertex 3.6459 -5.70634 15.625
    endloop
  endfacet
  facet normal 0 0 1
    outer loop
      vertex 3.59881 -1.3813 15.625
      vertex 0.645898 -3.52671 15.625
      vertex 1.97329 -4.8541 15.625
    endloop
  endfacet
  facet normal 0 0 1
    outer loop
      vertex 3.26502 -0.72619 15.625
      vertex -0.206339 -1.8541 15.625
      vertex 0.645898 -3.52671 15.625
    endloop
  endfacet
  facet normal 0 0 1
    outer loop
      vertex -0.809016 0.951056 15.625
      vertex -0.345491 0.975528 15.625
      vertex -0.499999 1 15.625
    endloop
  endfacet
  facet normal 0 0 1
    outer loop
      vertex -1.08778 0.809016 15.625
      vertex -0.345491 0.975528 15.625
      vertex -0.809016 0.951056 15.625
    endloop
  endfacet
  facet normal 0 0 1
    outer loop
      vertex -1.30902 0.587785 15.625
      vertex -0.345491 0.975528 15.625
      vertex -1.08778 0.809016 15.625
    endloop
  endfacet
  facet normal 0 0 1
    outer loop
      vertex -0.345491 -0.975528 15.625
      vertex -0.809016 -0.951056 15.625
      vertex -0.5 -1 15.625
    endloop
  endfacet
  facet normal 0 0 1
    outer loop
      vertex -0.345491 0.975528 15.625
      vertex -1.30902 0.587785 15.625
      vertex -0.345491 -0.975528 15.625
    endloop
  endfacet
  facet normal 0 0 1
    outer loop
      vertex -0.345491 -0.975528 15.625
      vertex -1.08778 -0.809016 15.625
      vertex -0.809016 -0.951056 15.625
    endloop
  endfacet
  facet normal -0 0 1
    outer loop
      vertex -1.30902 -0.587785 15.625
      vertex -0.345491 -0.975528 15.625
      vertex -1.30902 0.587785 15.625
    endloop
  endfacet
  facet normal 0 0 1
    outer loop
      vertex -0.345491 -0.975528 15.625
      vertex -1.30902 -0.587785 15.625
      vertex -1.08778 -0.809016 15.625
    endloop
  endfacet
  facet normal -0 0 1
    outer loop
      vertex -1.45106 0.309016 15.625
      vertex -1.30902 -0.587785 15.625
      vertex -1.30902 0.587785 15.625
    endloop
  endfacet
  facet normal 0 0 1
    outer loop
      vertex -1.45106 0.309016 15.625
      vertex -1.45106 -0.309016 15.625
      vertex -1.30902 -0.587785 15.625
    endloop
  endfacet
  facet normal 0 -0 1
    outer loop
      vertex -1.45106 -0.309016 15.625
      vertex -1.45106 0.309016 15.625
      vertex -1.5 0 15.625
    endloop
  endfacet
  facet normal 0.987688 -0.156435 0
    outer loop
      vertex 11.2063 -1.8541 15.625
      vertex 11.5 0 11
      vertex 11.5 0 15.625
    endloop
  endfacet
  facet normal 0.987688 -0.156435 0
    outer loop
      vertex 11.5 0 11
      vertex 11.2063 -1.8541 15.625
      vertex 11.2063 -1.8541 11
    endloop
  endfacet
  facet normal 0.453991 -0.891006 0
    outer loop
      vertex 7.3541 -5.70634 11
      vertex 9.02671 -4.8541 15.625
      vertex 7.3541 -5.70634 15.625
    endloop
  endfacet
  facet normal 0.453991 -0.891006 0
    outer loop
      vertex 9.02671 -4.8541 15.625
      vertex 7.3541 -5.70634 11
      vertex 9.02671 -4.8541 11
    endloop
  endfacet
  facet normal -0.707107 -0.707107 0
    outer loop
      vertex 1.97329 -4.8541 11
      vertex 0.645898 -3.52671 15.625
      vertex 0.645898 -3.52671 11
    endloop
  endfacet
  facet normal -0.707107 -0.707107 0
    outer loop
      vertex 0.645898 -3.52671 15.625
      vertex 1.97329 -4.8541 11
      vertex 1.97329 -4.8541 15.625
    endloop
  endfacet
  facet normal -0.156435 -0.987688 0
    outer loop
      vertex 3.6459 -5.70634 11
      vertex 5.5 -6 15.625
      vertex 3.6459 -5.70634 15.625
    endloop
  endfacet
  facet normal -0.156435 -0.987688 -0
    outer loop
      vertex 5.5 -6 15.625
      vertex 3.6459 -5.70634 11
      vertex 5.5 -6 11
    endloop
  endfacet
  facet normal -0.891007 -0.45399 0
    outer loop
      vertex 0.27562 -2.8 11
      vertex 0.645898 -3.52671 11
      vertex 0.27562 -2.8 15
    endloop
  endfacet
  facet normal -0.891007 -0.45399 0
    outer loop
      vertex 0.27562 -2.8 15
      vertex -0.206339 -1.8541 15.625
      vertex -0.206339 -1.8541 15
    endloop
  endfacet
  facet normal -0.891007 -0.45399 -1.97743e-08
    outer loop
      vertex 0.27562 -2.8 15
      vertex 0.645898 -3.52671 15.625
      vertex -0.206339 -1.8541 15.625
    endloop
  endfacet
  facet normal -0.891007 -0.45399 -0
    outer loop
      vertex 0.645898 -3.52671 15.625
      vertex 0.27562 -2.8 15
      vertex 0.645898 -3.52671 11
    endloop
  endfacet
  facet normal 0.707107 -0.707107 0
    outer loop
      vertex 9.02671 -4.8541 15.625
      vertex 10.3541 -3.52671 11
      vertex 10.3541 -3.52671 15.625
    endloop
  endfacet
  facet normal 0.707107 -0.707107 0
    outer loop
      vertex 10.3541 -3.52671 11
      vertex 9.02671 -4.8541 15.625
      vertex 9.02671 -4.8541 11
    endloop
  endfacet
  facet normal -0.453991 -0.891006 0
    outer loop
      vertex 1.97329 -4.8541 11
      vertex 3.6459 -5.70634 15.625
      vertex 1.97329 -4.8541 15.625
    endloop
  endfacet
  facet normal -0.453991 -0.891006 -0
    outer loop
      vertex 3.6459 -5.70634 15.625
      vertex 1.97329 -4.8541 11
      vertex 3.6459 -5.70634 11
    endloop
  endfacet
  facet normal -0.987688 0.156435 0
    outer loop
      vertex -1.5 0 15
      vertex -1.45106 0.309016 15.625
      vertex -1.45106 0.309016 15
    endloop
  endfacet
  facet normal -0.987688 0.156435 0
    outer loop
      vertex -1.45106 0.309016 15.625
      vertex -1.5 0 15
      vertex -1.5 0 15.625
    endloop
  endfacet
  facet normal 0.156435 0.987688 -0
    outer loop
      vertex -0.345491 0.975528 15
      vertex -0.499999 1 15.625
      vertex -0.345491 0.975528 15.625
    endloop
  endfacet
  facet normal 0.156435 0.987688 0
    outer loop
      vertex -0.499999 1 15.625
      vertex -0.345491 0.975528 15
      vertex -0.499999 1 15
    endloop
  endfacet
  facet normal -0.156435 -0.987688 0
    outer loop
      vertex -0.809016 -0.951056 15
      vertex -0.5 -1 15.625
      vertex -0.809016 -0.951056 15.625
    endloop
  endfacet
  facet normal -0.156435 -0.987688 -0
    outer loop
      vertex -0.5 -1 15.625
      vertex -0.809016 -0.951056 15
      vertex -0.5 -1 15
    endloop
  endfacet
  facet normal -0.453992 0.891006 0
    outer loop
      vertex -0.809016 0.951056 15
      vertex -1.08778 0.809016 15.625
      vertex -0.809016 0.951056 15.625
    endloop
  endfacet
  facet normal -0.453992 0.891006 0
    outer loop
      vertex -1.08778 0.809016 15.625
      vertex -0.809016 0.951056 15
      vertex -1.08778 0.809016 15
    endloop
  endfacet
  facet normal -0.156434 0.987688 0
    outer loop
      vertex -0.499999 1 15
      vertex -0.809016 0.951056 15.625
      vertex -0.499999 1 15.625
    endloop
  endfacet
  facet normal -0.156434 0.987688 0
    outer loop
      vertex -0.809016 0.951056 15.625
      vertex -0.499999 1 15
      vertex -0.809016 0.951056 15
    endloop
  endfacet
  facet normal 0.156434 -0.987688 0
    outer loop
      vertex -0.5 -1 15
      vertex -0.345491 -0.975528 15.625
      vertex -0.5 -1 15.625
    endloop
  endfacet
  facet normal 0.156434 -0.987688 0
    outer loop
      vertex -0.345491 -0.975528 15.625
      vertex -0.5 -1 15
      vertex -0.345491 -0.975528 15
    endloop
  endfacet
  facet normal -0.987688 -0.156435 0
    outer loop
      vertex -1.45106 -0.309016 15
      vertex -1.5 0 15.625
      vertex -1.5 0 15
    endloop
  endfacet
  facet normal -0.987688 -0.156435 0
    outer loop
      vertex -1.5 0 15.625
      vertex -1.45106 -0.309016 15
      vertex -1.45106 -0.309016 15.625
    endloop
  endfacet
  facet normal -0.707107 0.707107 0
    outer loop
      vertex -1.30902 0.587785 15
      vertex -1.08778 0.809016 15.625
      vertex -1.08778 0.809016 15
    endloop
  endfacet
  facet normal -0.707107 0.707107 0
    outer loop
      vertex -1.08778 0.809016 15.625
      vertex -1.30902 0.587785 15
      vertex -1.30902 0.587785 15.625
    endloop
  endfacet
  facet normal -0.891006 0.453992 0
    outer loop
      vertex -1.45106 0.309016 15
      vertex -1.30902 0.587785 15.625
      vertex -1.30902 0.587785 15
    endloop
  endfacet
  facet normal -0.891006 0.453992 0
    outer loop
      vertex -1.30902 0.587785 15.625
      vertex -1.45106 0.309016 15
      vertex -1.45106 0.309016 15.625
    endloop
  endfacet
  facet normal -0.707107 -0.707107 0
    outer loop
      vertex -1.08778 -0.809016 15
      vertex -1.30902 -0.587785 15.625
      vertex -1.30902 -0.587785 15
    endloop
  endfacet
  facet normal -0.707107 -0.707107 0
    outer loop
      vertex -1.30902 -0.587785 15.625
      vertex -1.08778 -0.809016 15
      vertex -1.08778 -0.809016 15.625
    endloop
  endfacet
  facet normal -0.891006 -0.453992 0
    outer loop
      vertex -1.30902 -0.587785 15
      vertex -1.45106 -0.309016 15.625
      vertex -1.45106 -0.309016 15
    endloop
  endfacet
  facet normal -0.891006 -0.453992 0
    outer loop
      vertex -1.45106 -0.309016 15.625
      vertex -1.30902 -0.587785 15
      vertex -1.30902 -0.587785 15.625
    endloop
  endfacet
  facet normal -0.453992 -0.891006 0
    outer loop
      vertex -1.08778 -0.809016 15
      vertex -0.809016 -0.951056 15.625
      vertex -1.08778 -0.809016 15.625
    endloop
  endfacet
  facet normal -0.453992 -0.891006 -0
    outer loop
      vertex -0.809016 -0.951056 15.625
      vertex -1.08778 -0.809016 15
      vertex -0.809016 -0.951056 15
    endloop
  endfacet
  facet normal -1 0 0
    outer loop
      vertex -3.5 -2.8 11
      vertex -3.5 2.8 15
      vertex -3.5 2.8 11
    endloop
  endfacet
  facet normal -1 -0 0
    outer loop
      vertex -3.5 2.8 15
      vertex -3.5 -2.8 11
      vertex -3.5 -2.8 15
    endloop
  endfacet
  facet normal 0 0 1
    outer loop
      vertex -0.206339 1.8541 15
      vertex -0.499999 1 15
      vertex -0.345491 0.975528 15
    endloop
  endfacet
  facet normal 0 0 1
    outer loop
      vertex -0.206339 1.8541 15
      vertex -0.809016 0.951056 15
      vertex -0.499999 1 15
    endloop
  endfacet
  facet normal -0 0 1
    outer loop
      vertex -3.5 2.8 15
      vertex -0.206339 1.8541 15
      vertex 0.27562 2.8 15
    endloop
  endfacet
  facet normal 0 -0 1
    outer loop
      vertex -1.08778 0.809016 15
      vertex -0.206339 1.8541 15
      vertex -3.5 2.8 15
    endloop
  endfacet
  facet normal 0 0 1
    outer loop
      vertex -0.206339 1.8541 15
      vertex -1.08778 0.809016 15
      vertex -0.809016 0.951056 15
    endloop
  endfacet
  facet normal 0 0 1
    outer loop
      vertex -1.45106 0.309016 15
      vertex -3.5 2.8 15
      vertex -1.5 0 15
    endloop
  endfacet
  facet normal 0 0 1
    outer loop
      vertex -1.30902 0.587785 15
      vertex -3.5 2.8 15
      vertex -1.45106 0.309016 15
    endloop
  endfacet
  facet normal 0 0 1
    outer loop
      vertex -1.08778 0.809016 15
      vertex -3.5 2.8 15
      vertex -1.30902 0.587785 15
    endloop
  endfacet
  facet normal -0 0 1
    outer loop
      vertex -0.5 -1 15
      vertex -0.206339 -1.8541 15
      vertex -0.345491 -0.975528 15
    endloop
  endfacet
  facet normal 0 0 1
    outer loop
      vertex -0.809016 -0.951056 15
      vertex -0.206339 -1.8541 15
      vertex -0.5 -1 15
    endloop
  endfacet
  facet normal 0 0 1
    outer loop
      vertex -1.08778 -0.809016 15
      vertex -0.206339 -1.8541 15
      vertex -0.809016 -0.951056 15
    endloop
  endfacet
  facet normal 0 0 1
    outer loop
      vertex -0.206339 -1.8541 15
      vertex -1.08778 -0.809016 15
      vertex -3.5 -2.8 15
    endloop
  endfacet
  facet normal 0 0 1
    outer loop
      vertex -3.5 -2.8 15
      vertex -1.08778 -0.809016 15
      vertex -1.30902 -0.587785 15
    endloop
  endfacet
  facet normal 0 0 1
    outer loop
      vertex -3.5 -2.8 15
      vertex -1.5 0 15
      vertex -3.5 2.8 15
    endloop
  endfacet
  facet normal 0 0 1
    outer loop
      vertex -1.5 0 15
      vertex -3.5 -2.8 15
      vertex -1.45106 -0.309016 15
    endloop
  endfacet
  facet normal 0 0 1
    outer loop
      vertex -0.206339 -1.8541 15
      vertex -3.5 -2.8 15
      vertex 0.27562 -2.8 15
    endloop
  endfacet
  facet normal 0 0 1
    outer loop
      vertex -1.45106 -0.309016 15
      vertex -3.5 -2.8 15
      vertex -1.30902 -0.587785 15
    endloop
  endfacet
  facet normal 0 -1 0
    outer loop
      vertex -3.5 -2.8 11
      vertex 0.27562 -2.8 15
      vertex -3.5 -2.8 15
    endloop
  endfacet
  facet normal 0 -1 -0
    outer loop
      vertex 0.27562 -2.8 15
      vertex -3.5 -2.8 11
      vertex 0.27562 -2.8 11
    endloop
  endfacet
  facet normal 0 1 -0
    outer loop
      vertex 0.27562 2.8 11
      vertex -3.5 2.8 15
      vertex 0.27562 2.8 15
    endloop
  endfacet
  facet normal 0 1 0
    outer loop
      vertex -3.5 2.8 15
      vertex 0.27562 2.8 11
      vertex -3.5 2.8 11
    endloop
  endfacet
  facet normal 0.987688 0.156434 0
    outer loop
      vertex 7.85 0 18.275
      vertex 7.73498 0.72619 15.625
      vertex 7.73498 0.72619 18.275
    endloop
  endfacet
  facet normal 0.987688 0.156434 0
    outer loop
      vertex 7.73498 0.72619 15.625
      vertex 7.85 0 18.275
      vertex 7.85 0 15.625
    endloop
  endfacet
  facet normal -0.987688 0.156434 0
    outer loop
      vertex 3.15 0 15.625
      vertex 3.26502 0.72619 18.275
      vertex 3.26502 0.72619 15.625
    endloop
  endfacet
  facet normal -0.987688 0.156434 0
    outer loop
      vertex 3.26502 0.72619 18.275
      vertex 3.15 0 15.625
      vertex 3.15 0 18.275
    endloop
  endfacet
  facet normal -0.156434 0.987688 0
    outer loop
      vertex 5.5 2.35 15.625
      vertex 4.77381 2.23498 18.275
      vertex 5.5 2.35 18.275
    endloop
  endfacet
  facet normal -0.156434 0.987688 0
    outer loop
      vertex 4.77381 2.23498 18.275
      vertex 5.5 2.35 15.625
      vertex 4.77381 2.23498 15.625
    endloop
  endfacet
  facet normal 0.156434 -0.987688 0
    outer loop
      vertex 5.5 -2.35 15.625
      vertex 6.22619 -2.23498 18.275
      vertex 5.5 -2.35 18.275
    endloop
  endfacet
  facet normal 0.156434 -0.987688 0
    outer loop
      vertex 6.22619 -2.23498 18.275
      vertex 5.5 -2.35 15.625
      vertex 6.22619 -2.23498 15.625
    endloop
  endfacet
  facet normal 0.45399 -0.891007 0
    outer loop
      vertex 6.22619 -2.23498 15.625
      vertex 6.8813 -1.90119 18.275
      vertex 6.22619 -2.23498 18.275
    endloop
  endfacet
  facet normal 0.45399 -0.891007 0
    outer loop
      vertex 6.8813 -1.90119 18.275
      vertex 6.22619 -2.23498 15.625
      vertex 6.8813 -1.90119 15.625
    endloop
  endfacet
  facet normal 0.707107 0.707107 0
    outer loop
      vertex 7.40119 1.3813 18.275
      vertex 6.8813 1.90119 15.625
      vertex 6.8813 1.90119 18.275
    endloop
  endfacet
  facet normal 0.707107 0.707107 0
    outer loop
      vertex 6.8813 1.90119 15.625
      vertex 7.40119 1.3813 18.275
      vertex 7.40119 1.3813 15.625
    endloop
  endfacet
  facet normal 0.891007 0.45399 0
    outer loop
      vertex 7.73498 0.72619 18.275
      vertex 7.40119 1.3813 15.625
      vertex 7.40119 1.3813 18.275
    endloop
  endfacet
  facet normal 0.891007 0.45399 0
    outer loop
      vertex 7.40119 1.3813 15.625
      vertex 7.73498 0.72619 18.275
      vertex 7.73498 0.72619 15.625
    endloop
  endfacet
  facet normal 0.45399 0.891007 -0
    outer loop
      vertex 6.8813 1.90119 15.625
      vertex 6.22619 2.23498 18.275
      vertex 6.8813 1.90119 18.275
    endloop
  endfacet
  facet normal 0.45399 0.891007 0
    outer loop
      vertex 6.22619 2.23498 18.275
      vertex 6.8813 1.90119 15.625
      vertex 6.22619 2.23498 15.625
    endloop
  endfacet
  facet normal -0.707107 0.707107 0
    outer loop
      vertex 3.59881 1.3813 15.625
      vertex 4.1187 1.90119 18.275
      vertex 4.1187 1.90119 15.625
    endloop
  endfacet
  facet normal -0.707107 0.707107 0
    outer loop
      vertex 4.1187 1.90119 18.275
      vertex 3.59881 1.3813 15.625
      vertex 3.59881 1.3813 18.275
    endloop
  endfacet
  facet normal -0.891007 0.45399 0
    outer loop
      vertex 3.26502 0.72619 15.625
      vertex 3.59881 1.3813 18.275
      vertex 3.59881 1.3813 15.625
    endloop
  endfacet
  facet normal -0.891007 0.45399 0
    outer loop
      vertex 3.59881 1.3813 18.275
      vertex 3.26502 0.72619 15.625
      vertex 3.26502 0.72619 18.275
    endloop
  endfacet
  facet normal 0 0 1
    outer loop
      vertex 7.73498 0.72619 18.275
      vertex 7.73498 -0.72619 18.275
      vertex 7.85 0 18.275
    endloop
  endfacet
  facet normal 0 0 1
    outer loop
      vertex 7.40119 1.3813 18.275
      vertex 7.73498 -0.72619 18.275
      vertex 7.73498 0.72619 18.275
    endloop
  endfacet
  facet normal 0 0 1
    outer loop
      vertex 7.40119 1.3813 18.275
      vertex 7.40119 -1.3813 18.275
      vertex 7.73498 -0.72619 18.275
    endloop
  endfacet
  facet normal 0 0 1
    outer loop
      vertex 6.8813 1.90119 18.275
      vertex 7.40119 -1.3813 18.275
      vertex 7.40119 1.3813 18.275
    endloop
  endfacet
  facet normal 0 0 1
    outer loop
      vertex 6.8813 1.90119 18.275
      vertex 6.8813 -1.90119 18.275
      vertex 7.40119 -1.3813 18.275
    endloop
  endfacet
  facet normal 0 0 1
    outer loop
      vertex 6.22619 2.23498 18.275
      vertex 6.8813 -1.90119 18.275
      vertex 6.8813 1.90119 18.275
    endloop
  endfacet
  facet normal 0 0 1
    outer loop
      vertex 6.22619 2.23498 18.275
      vertex 6.22619 -2.23498 18.275
      vertex 6.8813 -1.90119 18.275
    endloop
  endfacet
  facet normal 0 0 1
    outer loop
      vertex 5.5 2.35 18.275
      vertex 6.22619 -2.23498 18.275
      vertex 6.22619 2.23498 18.275
    endloop
  endfacet
  facet normal 0 0 1
    outer loop
      vertex 5.5 2.35 18.275
      vertex 5.5 -2.35 18.275
      vertex 6.22619 -2.23498 18.275
    endloop
  endfacet
  facet normal -0 0 1
    outer loop
      vertex 4.77381 2.23498 18.275
      vertex 5.5 -2.35 18.275
      vertex 5.5 2.35 18.275
    endloop
  endfacet
  facet normal 0 0 1
    outer loop
      vertex 4.77381 2.23498 18.275
      vertex 4.77381 -2.23498 18.275
      vertex 5.5 -2.35 18.275
    endloop
  endfacet
  facet normal -0 0 1
    outer loop
      vertex 4.1187 1.90119 18.275
      vertex 4.77381 -2.23498 18.275
      vertex 4.77381 2.23498 18.275
    endloop
  endfacet
  facet normal 0 0 1
    outer loop
      vertex 4.1187 1.90119 18.275
      vertex 4.1187 -1.90119 18.275
      vertex 4.77381 -2.23498 18.275
    endloop
  endfacet
  facet normal -0 0 1
    outer loop
      vertex 3.59881 1.3813 18.275
      vertex 4.1187 -1.90119 18.275
      vertex 4.1187 1.90119 18.275
    endloop
  endfacet
  facet normal 0 0 1
    outer loop
      vertex 3.59881 1.3813 18.275
      vertex 3.59881 -1.3813 18.275
      vertex 4.1187 -1.90119 18.275
    endloop
  endfacet
  facet normal -0 0 1
    outer loop
      vertex 3.26502 0.72619 18.275
      vertex 3.59881 -1.3813 18.275
      vertex 3.59881 1.3813 18.275
    endloop
  endfacet
  facet normal 0 0 1
    outer loop
      vertex 3.26502 0.72619 18.275
      vertex 3.26502 -0.72619 18.275
      vertex 3.59881 -1.3813 18.275
    endloop
  endfacet
  facet normal 0 -0 1
    outer loop
      vertex 3.26502 -0.72619 18.275
      vertex 3.26502 0.72619 18.275
      vertex 3.15 0 18.275
    endloop
  endfacet
  facet normal -0.45399 0.891007 0
    outer loop
      vertex 4.77381 2.23498 15.625
      vertex 4.1187 1.90119 18.275
      vertex 4.77381 2.23498 18.275
    endloop
  endfacet
  facet normal -0.45399 0.891007 0
    outer loop
      vertex 4.1187 1.90119 18.275
      vertex 4.77381 2.23498 15.625
      vertex 4.1187 1.90119 15.625
    endloop
  endfacet
  facet normal 0.891007 -0.45399 0
    outer loop
      vertex 7.40119 -1.3813 18.275
      vertex 7.73498 -0.72619 15.625
      vertex 7.73498 -0.72619 18.275
    endloop
  endfacet
  facet normal 0.891007 -0.45399 0
    outer loop
      vertex 7.73498 -0.72619 15.625
      vertex 7.40119 -1.3813 18.275
      vertex 7.40119 -1.3813 15.625
    endloop
  endfacet
  facet normal 0.156434 0.987688 -0
    outer loop
      vertex 6.22619 2.23498 15.625
      vertex 5.5 2.35 18.275
      vertex 6.22619 2.23498 18.275
    endloop
  endfacet
  facet normal 0.156434 0.987688 0
    outer loop
      vertex 5.5 2.35 18.275
      vertex 6.22619 2.23498 15.625
      vertex 5.5 2.35 15.625
    endloop
  endfacet
  facet normal 0.987688 -0.156434 0
    outer loop
      vertex 7.73498 -0.72619 18.275
      vertex 7.85 0 15.625
      vertex 7.85 0 18.275
    endloop
  endfacet
  facet normal 0.987688 -0.156434 0
    outer loop
      vertex 7.85 0 15.625
      vertex 7.73498 -0.72619 18.275
      vertex 7.73498 -0.72619 15.625
    endloop
  endfacet
  facet normal 0.707107 -0.707107 0
    outer loop
      vertex 6.8813 -1.90119 18.275
      vertex 7.40119 -1.3813 15.625
      vertex 7.40119 -1.3813 18.275
    endloop
  endfacet
  facet normal 0.707107 -0.707107 0
    outer loop
      vertex 7.40119 -1.3813 15.625
      vertex 6.8813 -1.90119 18.275
      vertex 6.8813 -1.90119 15.625
    endloop
  endfacet
  facet normal -0.45399 -0.891007 0
    outer loop
      vertex 4.1187 -1.90119 15.625
      vertex 4.77381 -2.23498 18.275
      vertex 4.1187 -1.90119 18.275
    endloop
  endfacet
  facet normal -0.45399 -0.891007 -0
    outer loop
      vertex 4.77381 -2.23498 18.275
      vertex 4.1187 -1.90119 15.625
      vertex 4.77381 -2.23498 15.625
    endloop
  endfacet
  facet normal -0.707107 -0.707107 0
    outer loop
      vertex 4.1187 -1.90119 15.625
      vertex 3.59881 -1.3813 18.275
      vertex 3.59881 -1.3813 15.625
    endloop
  endfacet
  facet normal -0.707107 -0.707107 0
    outer loop
      vertex 3.59881 -1.3813 18.275
      vertex 4.1187 -1.90119 15.625
      vertex 4.1187 -1.90119 18.275
    endloop
  endfacet
  facet normal -0.156434 -0.987688 0
    outer loop
      vertex 4.77381 -2.23498 15.625
      vertex 5.5 -2.35 18.275
      vertex 4.77381 -2.23498 18.275
    endloop
  endfacet
  facet normal -0.156434 -0.987688 -0
    outer loop
      vertex 5.5 -2.35 18.275
      vertex 4.77381 -2.23498 15.625
      vertex 5.5 -2.35 15.625
    endloop
  endfacet
  facet normal -0.891007 -0.45399 0
    outer loop
      vertex 3.59881 -1.3813 15.625
      vertex 3.26502 -0.72619 18.275
      vertex 3.26502 -0.72619 15.625
    endloop
  endfacet
  facet normal -0.891007 -0.45399 0
    outer loop
      vertex 3.26502 -0.72619 18.275
      vertex 3.59881 -1.3813 15.625
      vertex 3.59881 -1.3813 18.275
    endloop
  endfacet
  facet normal -0.987688 -0.156434 0
    outer loop
      vertex 3.26502 -0.72619 15.625
      vertex 3.15 0 18.275
      vertex 3.15 0 15.625
    endloop
  endfacet
  facet normal -0.987688 -0.156434 0
    outer loop
      vertex 3.15 0 18.275
      vertex 3.26502 -0.72619 15.625
      vertex 3.26502 -0.72619 18.275
    endloop
  endfacet
  facet normal -0.987688 -0.156435 0
    outer loop
      vertex 15 0 4
      vertex 14.9511 0.309016 6
      vertex 14.9511 0.309016 4
    endloop
  endfacet
  facet normal -0.987688 -0.156435 0
    outer loop
      vertex 14.9511 0.309016 6
      vertex 15 0 4
      vertex 15 0 6
    endloop
  endfacet
  facet normal 0.156434 -0.987688 0
    outer loop
      vertex 13.691 0.951056 4
      vertex 14 1 6
      vertex 13.691 0.951056 6
    endloop
  endfacet
  facet normal 0.156434 -0.987688 0
    outer loop
      vertex 14 1 6
      vertex 13.691 0.951056 4
      vertex 14 1 4
    endloop
  endfacet
  facet normal -0.156435 0.987688 0
    outer loop
      vertex 14.309 -0.951056 4
      vertex 14 -1 6
      vertex 14.309 -0.951056 6
    endloop
  endfacet
  facet normal -0.156435 0.987688 0
    outer loop
      vertex 14 -1 6
      vertex 14.309 -0.951056 4
      vertex 14 -1 4
    endloop
  endfacet
  facet normal -0.891006 0.453992 0
    outer loop
      vertex 14.809 -0.587785 4
      vertex 14.9511 -0.309016 6
      vertex 14.9511 -0.309016 4
    endloop
  endfacet
  facet normal -0.891006 0.453992 0
    outer loop
      vertex 14.9511 -0.309016 6
      vertex 14.809 -0.587785 4
      vertex 14.809 -0.587785 6
    endloop
  endfacet
  facet normal -0.453992 -0.891006 0
    outer loop
      vertex 14.309 0.951056 4
      vertex 14.5878 0.809016 6
      vertex 14.309 0.951056 6
    endloop
  endfacet
  facet normal -0.453992 -0.891006 -0
    outer loop
      vertex 14.5878 0.809016 6
      vertex 14.309 0.951056 4
      vertex 14.5878 0.809016 4
    endloop
  endfacet
  facet normal -0.891006 -0.453992 0
    outer loop
      vertex 14.9511 0.309016 4
      vertex 14.809 0.587785 6
      vertex 14.809 0.587785 4
    endloop
  endfacet
  facet normal -0.891006 -0.453992 0
    outer loop
      vertex 14.809 0.587785 6
      vertex 14.9511 0.309016 4
      vertex 14.9511 0.309016 6
    endloop
  endfacet
  facet normal -0.156435 -0.987688 0
    outer loop
      vertex 14 1 4
      vertex 14.309 0.951056 6
      vertex 14 1 6
    endloop
  endfacet
  facet normal -0.156435 -0.987688 -0
    outer loop
      vertex 14.309 0.951056 6
      vertex 14 1 4
      vertex 14.309 0.951056 4
    endloop
  endfacet
  facet normal 0.891006 -0.453992 0
    outer loop
      vertex 13.0489 0.309016 6
      vertex 13.191 0.587785 4
      vertex 13.191 0.587785 6
    endloop
  endfacet
  facet normal 0.891006 -0.453992 0
    outer loop
      vertex 13.191 0.587785 4
      vertex 13.0489 0.309016 6
      vertex 13.0489 0.309016 4
    endloop
  endfacet
  facet normal 0.987689 -0.156432 0
    outer loop
      vertex 13 0 6
      vertex 13.0489 0.309016 4
      vertex 13.0489 0.309016 6
    endloop
  endfacet
  facet normal 0.987689 -0.156432 0
    outer loop
      vertex 13.0489 0.309016 4
      vertex 13 0 6
      vertex 13 0 4
    endloop
  endfacet
  facet normal 0.453992 -0.891006 0
    outer loop
      vertex 13.4122 0.809016 4
      vertex 13.691 0.951056 6
      vertex 13.4122 0.809016 6
    endloop
  endfacet
  facet normal 0.453992 -0.891006 0
    outer loop
      vertex 13.691 0.951056 6
      vertex 13.4122 0.809016 4
      vertex 13.691 0.951056 4
    endloop
  endfacet
  facet normal -0.707107 -0.707107 0
    outer loop
      vertex 14.809 0.587785 4
      vertex 14.5878 0.809016 6
      vertex 14.5878 0.809016 4
    endloop
  endfacet
  facet normal -0.707107 -0.707107 0
    outer loop
      vertex 14.5878 0.809016 6
      vertex 14.809 0.587785 4
      vertex 14.809 0.587785 6
    endloop
  endfacet
  facet normal 0.987689 0.156432 0
    outer loop
      vertex 13.0489 -0.309016 6
      vertex 13 0 4
      vertex 13 0 6
    endloop
  endfacet
  facet normal 0.987689 0.156432 0
    outer loop
      vertex 13 0 4
      vertex 13.0489 -0.309016 6
      vertex 13.0489 -0.309016 4
    endloop
  endfacet
  facet normal 0.707107 -0.707107 0
    outer loop
      vertex 13.191 0.587785 6
      vertex 13.4122 0.809016 4
      vertex 13.4122 0.809016 6
    endloop
  endfacet
  facet normal 0.707107 -0.707107 0
    outer loop
      vertex 13.4122 0.809016 4
      vertex 13.191 0.587785 6
      vertex 13.191 0.587785 4
    endloop
  endfacet
  facet normal -0.453992 0.891006 0
    outer loop
      vertex 14.5878 -0.809016 4
      vertex 14.309 -0.951056 6
      vertex 14.5878 -0.809016 6
    endloop
  endfacet
  facet normal -0.453992 0.891006 0
    outer loop
      vertex 14.309 -0.951056 6
      vertex 14.5878 -0.809016 4
      vertex 14.309 -0.951056 4
    endloop
  endfacet
  facet normal -0.987688 0.156435 0
    outer loop
      vertex 14.9511 -0.309016 4
      vertex 15 0 6
      vertex 15 0 4
    endloop
  endfacet
  facet normal -0.987688 0.156435 0
    outer loop
      vertex 15 0 6
      vertex 14.9511 -0.309016 4
      vertex 14.9511 -0.309016 6
    endloop
  endfacet
  facet normal -0.707107 0.707107 0
    outer loop
      vertex 14.5878 -0.809016 4
      vertex 14.809 -0.587785 6
      vertex 14.809 -0.587785 4
    endloop
  endfacet
  facet normal -0.707107 0.707107 0
    outer loop
      vertex 14.809 -0.587785 6
      vertex 14.5878 -0.809016 4
      vertex 14.5878 -0.809016 6
    endloop
  endfacet
  facet normal 0.156434 0.987688 -0
    outer loop
      vertex 14 -1 4
      vertex 13.691 -0.951056 6
      vertex 14 -1 6
    endloop
  endfacet
  facet normal 0.156434 0.987688 0
    outer loop
      vertex 13.691 -0.951056 6
      vertex 14 -1 4
      vertex 13.691 -0.951056 4
    endloop
  endfacet
  facet normal 0.707107 0.707107 0
    outer loop
      vertex 13.4122 -0.809016 6
      vertex 13.191 -0.587785 4
      vertex 13.191 -0.587785 6
    endloop
  endfacet
  facet normal 0.707107 0.707107 0
    outer loop
      vertex 13.191 -0.587785 4
      vertex 13.4122 -0.809016 6
      vertex 13.4122 -0.809016 4
    endloop
  endfacet
  facet normal 0.891006 0.453992 0
    outer loop
      vertex 13.191 -0.587785 6
      vertex 13.0489 -0.309016 4
      vertex 13.0489 -0.309016 6
    endloop
  endfacet
  facet normal 0.891006 0.453992 0
    outer loop
      vertex 13.0489 -0.309016 4
      vertex 13.191 -0.587785 6
      vertex 13.191 -0.587785 4
    endloop
  endfacet
  facet normal 0.453992 0.891006 -0
    outer loop
      vertex 13.691 -0.951056 4
      vertex 13.4122 -0.809016 6
      vertex 13.691 -0.951056 6
    endloop
  endfacet
  facet normal 0.453992 0.891006 0
    outer loop
      vertex 13.4122 -0.809016 6
      vertex 13.691 -0.951056 4
      vertex 13.4122 -0.809016 4
    endloop
  endfacet
  facet normal -0.987689 -0.156432 0
    outer loop
      vertex -13 0 4
      vertex -13.0489 0.309016 6
      vertex -13.0489 0.309016 4
    endloop
  endfacet
  facet normal -0.987689 -0.156432 0
    outer loop
      vertex -13.0489 0.309016 6
      vertex -13 0 4
      vertex -13 0 6
    endloop
  endfacet
  facet normal 0.987688 -0.156435 0
    outer loop
      vertex -15 0 6
      vertex -14.9511 0.309016 4
      vertex -14.9511 0.309016 6
    endloop
  endfacet
  facet normal 0.987688 -0.156435 0
    outer loop
      vertex -14.9511 0.309016 4
      vertex -15 0 6
      vertex -15 0 4
    endloop
  endfacet
  facet normal -0.156434 -0.987688 0
    outer loop
      vertex -14 1 4
      vertex -13.691 0.951056 6
      vertex -14 1 6
    endloop
  endfacet
  facet normal -0.156434 -0.987688 -0
    outer loop
      vertex -13.691 0.951056 6
      vertex -14 1 4
      vertex -13.691 0.951056 4
    endloop
  endfacet
  facet normal 0.156435 0.987688 -0
    outer loop
      vertex -14 -1 4
      vertex -14.309 -0.951056 6
      vertex -14 -1 6
    endloop
  endfacet
  facet normal 0.156435 0.987688 0
    outer loop
      vertex -14.309 -0.951056 6
      vertex -14 -1 4
      vertex -14.309 -0.951056 4
    endloop
  endfacet
  facet normal -0.707107 -0.707107 0
    outer loop
      vertex -13.191 0.587785 4
      vertex -13.4122 0.809016 6
      vertex -13.4122 0.809016 4
    endloop
  endfacet
  facet normal -0.707107 -0.707107 0
    outer loop
      vertex -13.4122 0.809016 6
      vertex -13.191 0.587785 4
      vertex -13.191 0.587785 6
    endloop
  endfacet
  facet normal -0.891006 -0.453992 0
    outer loop
      vertex -13.0489 0.309016 4
      vertex -13.191 0.587785 6
      vertex -13.191 0.587785 4
    endloop
  endfacet
  facet normal -0.891006 -0.453992 0
    outer loop
      vertex -13.191 0.587785 6
      vertex -13.0489 0.309016 4
      vertex -13.0489 0.309016 6
    endloop
  endfacet
  facet normal -0.453992 -0.891006 0
    outer loop
      vertex -13.691 0.951056 4
      vertex -13.4122 0.809016 6
      vertex -13.691 0.951056 6
    endloop
  endfacet
  facet normal -0.453992 -0.891006 -0
    outer loop
      vertex -13.4122 0.809016 6
      vertex -13.691 0.951056 4
      vertex -13.4122 0.809016 4
    endloop
  endfacet
  facet normal 0.453992 -0.891006 0
    outer loop
      vertex -14.5878 0.809016 4
      vertex -14.309 0.951056 6
      vertex -14.5878 0.809016 6
    endloop
  endfacet
  facet normal 0.453992 -0.891006 0
    outer loop
      vertex -14.309 0.951056 6
      vertex -14.5878 0.809016 4
      vertex -14.309 0.951056 4
    endloop
  endfacet
  facet normal 0.156435 -0.987688 0
    outer loop
      vertex -14.309 0.951056 4
      vertex -14 1 6
      vertex -14.309 0.951056 6
    endloop
  endfacet
  facet normal 0.156435 -0.987688 0
    outer loop
      vertex -14 1 6
      vertex -14.309 0.951056 4
      vertex -14 1 4
    endloop
  endfacet
  facet normal -0.156434 0.987688 0
    outer loop
      vertex -13.691 -0.951056 4
      vertex -14 -1 6
      vertex -13.691 -0.951056 6
    endloop
  endfacet
  facet normal -0.156434 0.987688 0
    outer loop
      vertex -14 -1 6
      vertex -13.691 -0.951056 4
      vertex -14 -1 4
    endloop
  endfacet
  facet normal -0.891006 0.453992 0
    outer loop
      vertex -13.191 -0.587785 4
      vertex -13.0489 -0.309016 6
      vertex -13.0489 -0.309016 4
    endloop
  endfacet
  facet normal -0.891006 0.453992 0
    outer loop
      vertex -13.0489 -0.309016 6
      vertex -13.191 -0.587785 4
      vertex -13.191 -0.587785 6
    endloop
  endfacet
  facet normal 0.987688 0.156435 0
    outer loop
      vertex -14.9511 -0.309016 6
      vertex -15 0 4
      vertex -15 0 6
    endloop
  endfacet
  facet normal 0.987688 0.156435 0
    outer loop
      vertex -15 0 4
      vertex -14.9511 -0.309016 6
      vertex -14.9511 -0.309016 4
    endloop
  endfacet
  facet normal 0.707107 -0.707107 0
    outer loop
      vertex -14.809 0.587785 6
      vertex -14.5878 0.809016 4
      vertex -14.5878 0.809016 6
    endloop
  endfacet
  facet normal 0.707107 -0.707107 0
    outer loop
      vertex -14.5878 0.809016 4
      vertex -14.809 0.587785 6
      vertex -14.809 0.587785 4
    endloop
  endfacet
  facet normal 0.891006 -0.453992 0
    outer loop
      vertex -14.9511 0.309016 6
      vertex -14.809 0.587785 4
      vertex -14.809 0.587785 6
    endloop
  endfacet
  facet normal 0.891006 -0.453992 0
    outer loop
      vertex -14.809 0.587785 4
      vertex -14.9511 0.309016 6
      vertex -14.9511 0.309016 4
    endloop
  endfacet
  facet normal -0.987689 0.156432 0
    outer loop
      vertex -13.0489 -0.309016 4
      vertex -13 0 6
      vertex -13 0 4
    endloop
  endfacet
  facet normal -0.987689 0.156432 0
    outer loop
      vertex -13 0 6
      vertex -13.0489 -0.309016 4
      vertex -13.0489 -0.309016 6
    endloop
  endfacet
  facet normal -0.453992 0.891006 0
    outer loop
      vertex -13.4122 -0.809016 4
      vertex -13.691 -0.951056 6
      vertex -13.4122 -0.809016 6
    endloop
  endfacet
  facet normal -0.453992 0.891006 0
    outer loop
      vertex -13.691 -0.951056 6
      vertex -13.4122 -0.809016 4
      vertex -13.691 -0.951056 4
    endloop
  endfacet
  facet normal 0.707107 0.707107 0
    outer loop
      vertex -14.5878 -0.809016 6
      vertex -14.809 -0.587785 4
      vertex -14.809 -0.587785 6
    endloop
  endfacet
  facet normal 0.707107 0.707107 0
    outer loop
      vertex -14.809 -0.587785 4
      vertex -14.5878 -0.809016 6
      vertex -14.5878 -0.809016 4
    endloop
  endfacet
  facet normal 0.891006 0.453992 0
    outer loop
      vertex -14.809 -0.587785 6
      vertex -14.9511 -0.309016 4
      vertex -14.9511 -0.309016 6
    endloop
  endfacet
  facet normal 0.891006 0.453992 0
    outer loop
      vertex -14.9511 -0.309016 4
      vertex -14.809 -0.587785 6
      vertex -14.809 -0.587785 4
    endloop
  endfacet
  facet normal -0.707107 0.707107 0
    outer loop
      vertex -13.4122 -0.809016 4
      vertex -13.191 -0.587785 6
      vertex -13.191 -0.587785 4
    endloop
  endfacet
  facet normal -0.707107 0.707107 0
    outer loop
      vertex -13.191 -0.587785 6
      vertex -13.4122 -0.809016 4
      vertex -13.4122 -0.809016 6
    endloop
  endfacet
  facet normal 0.453992 0.891006 -0
    outer loop
      vertex -14.309 -0.951056 4
      vertex -14.5878 -0.809016 6
      vertex -14.309 -0.951056 6
    endloop
  endfacet
  facet normal 0.453992 0.891006 0
    outer loop
      vertex -14.5878 -0.809016 6
      vertex -14.309 -0.951056 4
      vertex -14.5878 -0.809016 4
    endloop
  endfacet
  facet normal 0.5 0 -0.866025
    outer loop
      vertex 6 -6.25 -11
      vertex 11.5 6.25 -7.82457
      vertex 11.5 -6.25 -7.82457
    endloop
  endfacet
  facet normal 0.5 0 -0.866025
    outer loop
      vertex 11.5 6.25 -7.82457
      vertex 6 -6.25 -11
      vertex 6 6.25 -11
    endloop
  endfacet
endsolid OpenSCAD_Model
